<svg xmlns="http://www.w3.org/2000/svg" xmlns:xlink="http://www.w3.org/1999/xlink" width="82" height="23" viewBox="0 0 82 23">
    <defs>
        <path id="zqmw2vrxca" d="M0.021 0.018L4.808 0.018 4.808 21.2 0.021 21.2z"/>
        <path id="0o64qd594c" d="M0.094 0.102L9.675 0.102 9.675 12 0.094 12z"/>
    </defs>
    <g fill="none" fill-rule="evenodd">
        <g>
            <g>
                <g transform="translate(-44 -33) translate(44 33) translate(77 .182)">
                    <mask id="yyh8sc0ubb" fill="#fff">
                        <use xlink:href="#zqmw2vrxca"/>
                    </mask>
                    <path fill="#769D91" d="M.021.018V2.77c.929 0 1.796.598 1.796 2.154v11.37c0 1.555-.867 2.154-1.796 2.154V21.2c2.485 0 4.788-1.556 4.788-5.685V5.702C4.809 1.573 2.506.018.02.018" mask="url(#yyh8sc0ubb)"/>
                </g>
                <path fill="#E43C2F" d="M75.226 16.476V5.106c0-1.555.87-2.153 1.795-2.153V.2c-2.482 0-4.787 1.556-4.787 5.685v9.813c0 4.129 2.305 5.684 4.787 5.684v-2.751c-.925 0-1.795-.6-1.795-2.155" transform="translate(-44 -33) translate(44 33)"/>
                <path fill="#F49A29" d="M7.092 15.219l-4.1-13.024L2.514.68c-.09-.27-.21-.36-.57-.36H.599C.156.32.006.466.001.897l2.99 9.586 2.902 9.3 1.318-4.185-.12-.379z" transform="translate(-44 -33) translate(44 33)"/>
                <path fill="#1D1D1B" d="M8.198 20.844L8.198 20.844 8.528 19.783z" transform="translate(-44 -33) translate(44 33)"/>
                <path fill="#769D91" d="M11.43 10.483v10.182c0 .448.149.598.597.598h1.796c.448 0 .6-.15.6-.598V.917l-.002-.02-2.99 9.586z" transform="translate(-44 -33) translate(44 33)"/>
                <path fill="#E20714" d="M.001.897L0 .917v19.748c0 .448.149.598.6.598h1.795c.448 0 .597-.15.597-.598V10.483L0 .897z" transform="translate(-44 -33) translate(44 33)"/>
                <path fill="#245C4E" d="M13.823.32h-1.347c-.359 0-.478.09-.568.359l-.478 1.516-4.1 13.024-.12.38-1.317 4.184.254.812.077.249c.12.419.358.419.658.419h.658c.3 0 .538 0 .658-.419l.33-1.06 2.902-9.301L14.421.897c-.005-.431-.157-.578-.598-.578" transform="translate(-44 -33) translate(44 33)"/>
                <path fill="#1D1D1B" d="M5.893 19.783l.254.812-.254-.812z" transform="translate(-44 -33) translate(44 33)"/>
                <path fill="#245C4E" d="M27.324 20.754L23.555.858c-.061-.305-.126-.442-.309-.5-.086-.027-.196-.039-.349-.039H21.28c-.153 0-.263.012-.349.039l1.157 6.854.12.707 1.228 7.27.1.599.476 2.812.406 2.404c.103.255.28.26.601.26h1.796c.3 0 .6 0 .509-.51" transform="translate(-44 -33) translate(44 33)"/>
                <path fill="#E43C2F" d="M23.537 15.788L20.641 15.788 20.166 18.6 20.773 18.6 23.436 18.6 24.012 18.6z" transform="translate(-44 -33) translate(44 33)"/>
                <path fill="#F49A29" d="M20.931.358c-.183.058-.248.195-.309.5l-3.769 19.896c-.09.509.21.509.507.509h1.795c.323 0 .501-.004.604-.259l.406-2.404.475-2.812 1.448-8.576L20.931.358zM32.747 11.63h3.92c.448 0 .599-.15.599-.599V9.415c0-.448-.151-.598-.6-.598l-3.92-.005v2.817z" transform="translate(-44 -33) translate(44 33)"/>
                <path fill="#769D91" d="M32.747 18.45v2.813h3.92c.448 0 .599-.15.599-.598v-1.616c0-.449-.151-.599-.6-.599h-3.92z" transform="translate(-44 -33) translate(44 33)"/>
                <path fill="#245C4E" d="M36.666.32H30.354c-.45 0-.599.15-.599.597v2.215h6.911c.449 0 .6-.15.6-.598V.917c0-.448-.151-.598-.6-.598" transform="translate(-44 -33) translate(44 33)"/>
                <path fill="#E43C2F" d="M29.755 3.132v17.533c0 .448.149.598.6.598h2.392V3.132h-2.992z" transform="translate(-44 -33) translate(44 33)"/>
                <path fill="#769D91" d="M42.357 4.897c-.06-.598.088-1.944 1.464-1.944.81 0 1.438.508 1.438 1.586 0 .448.148.598.597.598h1.647c.599 0 .657-.15.599-.957C47.86 1.786 45.887.2 43.822.2c-2.693 0-4.546 2.155-4.398 4.727.153 2.517 1.938 4.645 3.577 6.598l2.04-2.04c-1.323-1.589-2.533-3.054-2.684-4.588" transform="translate(-44 -33) translate(44 33)"/>
                <g transform="translate(-44 -33) translate(44 33) translate(39 9.382)">
                    <mask id="4w5p9pfq1d" fill="#fff">
                        <use xlink:href="#0o64qd594c"/>
                    </mask>
                    <path fill="#245C4E" d="M6.04.102L4 2.142c1.576 1.878 3.016 3.595 2.736 5.34-.119.838-.658 1.766-1.854 1.766-1.228 0-1.824-.957-1.824-2.124 0-.54-.21-.688-.6-.688H.724c-.51 0-.629.148-.629.658C.035 9.726 2.13 12 4.882 12 7.964 12 9.97 9.278 9.64 6.584c-.309-2.546-2.033-4.6-3.6-6.482" mask="url(#4w5p9pfq1d)"/>
                </g>
                <path fill="#E43C2F" d="M58.28.32h-7.779c-.448 0-.599.15-.599.597v1.617c0 .448.151.598.6.598h7.778c.448 0 .6-.15.6-.598V.917c0-.448-.152-.598-.6-.598" transform="translate(-44 -33) translate(44 33)"/>
                <path fill="#F49A29" d="M52.894 3.132v17.545c.003.438.155.586.599.586h1.796c.436 0 .587-.144.595-.565V3.132h-2.99z" transform="translate(-44 -33) translate(44 33)"/>
                <path fill="#769D91" d="M65.297 12.5l.05.265 1.526 8.05c.09.448.267.448.657.448h1.886c.239 0 .477-.15.358-.629l-1.796-8.915c-1.008.694-1.944.786-2.677.78h-.004z" transform="translate(-44 -33) translate(44 33)"/>
                <path fill="#F49A29" d="M63.82 12.499l.6-.002h.567l.31.002h.004c.734.006 1.67-.086 2.677-.78 1.048-.778 1.825-2.154 1.825-4.877v-.957c0-1.192-.168-2.159-.465-2.932-.732-1.906-2.255-2.634-4.022-2.634h-3.888c-.451 0-.6.15-.6.598v2.036H65.316c.928 0 1.495.598 1.495 2.153V7.74c0 1.525-.567 2.124-1.495 2.124H63.82" transform="translate(-44 -33) translate(44 33)"/>
                <path fill="#245C4E" d="M60.828 2.953v17.712c0 .448.149.598.6.598h1.795c.448 0 .597-.15.597-.598V2.953h-2.992z" transform="translate(-44 -33) translate(44 33)"/>
            </g>
        </g>
    </g>
</svg>
